<?xml version="1.0" standalone="no"?><!DOCTYPE svg PUBLIC "-//W3C//DTD SVG 1.1//EN" "http://www.w3.org/Graphics/SVG/1.1/DTD/svg11.dtd"><svg t="1592561318533" class="icon" viewBox="0 0 1024 1024" version="1.1" xmlns="http://www.w3.org/2000/svg" p-id="2254" xmlns:xlink="http://www.w3.org/1999/xlink" width="200" height="200"><defs><style type="text/css"></style></defs><path d="M953.472 478.784l-165.248 141.568c-10.432 10.176-15.168 24.768-12.672 39.104l39.04 227.456c3.072 18.048 0 30.912-14.784 41.728-8.384 6.08-18.304 9.152-28.288 9.152-7.616 0-15.296-1.856-22.336-5.504l-208.64-112.448c-12.864-6.784-28.224-6.784-41.088 0l-199.872 112.448C283.392 940.8 263.808 939.328 248.96 928.576c-14.784-10.752-26.56-23.68-23.488-41.728L273.28 654.72c2.432-14.336-2.304-28.928-12.672-39.04L86.528 478.784c-13.12-12.736-17.856-31.872-12.224-49.28C80 412.096 95.04 399.424 113.152 396.8l226.368-39.744c14.4-2.112 26.816-11.136 33.216-24.128l104.192-219.904C484.992 96.64 501.696 86.208 520 86.208c18.304 0 34.944 10.368 43.072 26.816l100.096 219.904c6.4 13.056 18.88 22.08 33.216 24.128L926.912 396.8c18.048 2.624 33.152 15.296 38.784 32.704C971.328 446.912 966.528 465.984 953.472 478.784L953.472 478.784zM953.472 478.784" fill="#f4ea2a" p-id="2255"></path></svg>